<?xml version="1.0" encoding="utf-8"?>
<!-- Generator: Adobe Illustrator 19.0.0, SVG Export Plug-In . SVG Version: 6.00 Build 0)  -->
<svg version="1.1" id="Ebene_1" xmlns="http://www.w3.org/2000/svg" xmlns:xlink="http://www.w3.org/1999/xlink" x="0px" y="0px"
	 viewBox="0 0 315 77" style="enable-background:new 0 0 315 77;" xml:space="preserve">
<style type="text/css">
	.st0{fill:#2F2F30;}
	.st1{fill:#ED6E32;}
</style>
<polygon id="XMLID_468_" class="st0" points="38.3,53.4 51.9,67 0.1,67 0.1,15.2 13.6,28.7 13.6,53.4 "/>
<path id="XMLID_462_" class="st1" d="M51.2,58.9c1.3,1.3,5,5,5,5L60,60c0,0-3.2-4.3-4.6-6.3c1.9-3,3.3-6.4,4.1-9.8
	c2.1-0.3,7.7-1.2,7.7-1.2l0-10.9c0,0-6.3-1-7.7-1.2c-0.8-3.5-2.1-6.8-4.1-9.9c1-1.4,4.5-6.1,4.5-6.1L52.1,7c0,0-4.6,3.4-6.1,4.5
	c-3.1-2-6.4-3.3-9.9-4.1C35.9,5.9,35,0.1,35,0.1l-10.9,0c0,0-0.9,6-1.1,7.3c-3.5,0.8-6.8,2.1-9.9,4.1c-2.5-1.8-6.3-4.6-6.3-4.6
	l-3.9,3.9c0,0,3.4,3.4,4.9,4.9l8.9,8.9c7-7,18.4-7,25.4,0s7,18.4,0,25.4L51.2,58.9z"/>
<g id="XMLID_51_">
	<path id="XMLID_149_" class="st0" d="M107.2,51.9c1.1,1.5,1.7,3.3,1.7,5.5c0,3.1-1.2,5.5-3.6,7.2c-2.4,1.7-5.9,2.5-10.5,2.5H76.4
		V31.7h17.3c4.3,0,7.6,0.8,9.9,2.5c2.3,1.7,3.5,3.9,3.5,6.7c0,1.7-0.4,3.3-1.2,4.6c-0.8,1.3-2,2.4-3.5,3.2
		C104.5,49.4,106,50.4,107.2,51.9z M84.6,37.9v8.3h8.1c2,0,3.6-0.4,4.6-1.1c1-0.7,1.6-1.8,1.6-3.1c0-1.4-0.5-2.4-1.6-3.1
		c-1-0.7-2.6-1-4.6-1H84.6z M99,59.9c1.1-0.7,1.6-1.8,1.6-3.3c0-2.9-2.2-4.4-6.5-4.4h-9.6V61h9.6C96.3,61,97.9,60.6,99,59.9z"/>
	<path id="XMLID_153_" class="st0" d="M114.6,29.6h7.9v37.5h-7.9V29.6z"/>
	<path id="XMLID_162_" class="st0" d="M135,65.7c-2.3-1.2-4.1-2.9-5.3-5c-1.3-2.1-1.9-4.5-1.9-7.2c0-2.7,0.6-5.1,1.9-7.2
		c1.3-2.1,3.1-3.8,5.3-5c2.3-1.2,4.8-1.8,7.7-1.8c2.9,0,5.4,0.6,7.7,1.8c2.3,1.2,4,2.9,5.3,5c1.3,2.1,1.9,4.5,1.9,7.2
		c0,2.7-0.6,5.1-1.9,7.2c-1.3,2.1-3.1,3.8-5.3,5c-2.3,1.2-4.8,1.8-7.7,1.8C139.9,67.5,137.3,66.9,135,65.7z M147.7,59
		c1.3-1.4,1.9-3.2,1.9-5.5c0-2.3-0.6-4.1-1.9-5.5c-1.3-1.4-3-2-5-2c-2,0-3.7,0.7-5,2c-1.3,1.4-2,3.2-2,5.5c0,2.3,0.7,4.1,2,5.5
		c1.3,1.4,3,2,5,2C144.8,61.1,146.4,60.4,147.7,59z"/>
	<path id="XMLID_167_" class="st0" d="M168.3,65.7c-2.3-1.2-4.1-2.9-5.4-5c-1.3-2.1-1.9-4.5-1.9-7.2c0-2.7,0.6-5.1,1.9-7.2
		c1.3-2.1,3.1-3.8,5.4-5c2.3-1.2,4.9-1.8,7.8-1.8c2.9,0,5.4,0.6,7.5,1.8c2.1,1.2,3.7,2.9,4.7,5.1l-6.1,3.3c-1.4-2.5-3.5-3.7-6.1-3.7
		c-2.1,0-3.8,0.7-5.1,2c-1.3,1.3-2,3.2-2,5.5s0.7,4.2,2,5.5c1.3,1.3,3.1,2,5.1,2c2.7,0,4.7-1.2,6.1-3.7l6.1,3.3
		c-1,2.2-2.5,3.8-4.7,5.1c-2.1,1.2-4.6,1.8-7.5,1.8C173.2,67.5,170.6,66.9,168.3,65.7z"/>
	<path id="XMLID_170_" class="st0" d="M204.3,56.5l-3.8,3.7v6.9h-7.9V29.6h7.9v21.2l11.5-10.9h9.4l-11.3,11.5l12.3,15.7h-9.6
		L204.3,56.5z"/>
	<path id="XMLID_175_" class="st1" d="M230.1,65.7c-2.3-1.2-4.1-2.9-5.3-5c-1.3-2.1-1.9-4.5-1.9-7.2c0-2.7,0.6-5.1,1.9-7.2
		c1.3-2.1,3.1-3.8,5.3-5c2.3-1.2,4.8-1.8,7.7-1.8c2.9,0,5.4,0.6,7.7,1.8c2.3,1.2,4,2.9,5.3,5c1.3,2.1,1.9,4.5,1.9,7.2
		c0,2.7-0.6,5.1-1.9,7.2c-1.3,2.1-3.1,3.8-5.3,5c-2.3,1.2-4.8,1.8-7.7,1.8C234.9,67.5,232.4,66.9,230.1,65.7z M242.8,59
		c1.3-1.4,1.9-3.2,1.9-5.5c0-2.3-0.6-4.1-1.9-5.5c-1.3-1.4-3-2-5-2c-2,0-3.7,0.7-5,2c-1.3,1.4-2,3.2-2,5.5c0,2.3,0.7,4.1,2,5.5
		c1.3,1.4,3,2,5,2C239.8,61.1,241.5,60.4,242.8,59z"/>
	<path id="XMLID_203_" class="st1" d="M281,41.3c2.1,1.2,3.7,2.8,4.9,4.9c1.2,2.1,1.8,4.6,1.8,7.4c0,2.8-0.6,5.3-1.8,7.4
		c-1.2,2.1-2.8,3.7-4.9,4.9c-2.1,1.2-4.4,1.7-6.9,1.7c-3.5,0-6.2-1.1-8.2-3.3v12.7H258v-37h7.5V43c2-2.4,4.8-3.5,8.5-3.5
		C276.6,39.5,278.9,40.1,281,41.3z M277.7,59c1.3-1.4,1.9-3.2,1.9-5.5c0-2.3-0.6-4.1-1.9-5.5c-1.3-1.4-3-2-5-2s-3.7,0.7-5,2
		c-1.3,1.4-1.9,3.2-1.9,5.5c0,2.3,0.6,4.1,1.9,5.5c1.3,1.4,3,2,5,2S276.4,60.4,277.7,59z"/>
	<path id="XMLID_237_" class="st1" d="M295.4,66.7c-2.2-0.6-3.9-1.3-5.2-2.1l2.6-5.7c1.2,0.8,2.7,1.4,4.4,1.9
		c1.7,0.5,3.4,0.7,5.1,0.7c3.3,0,5-0.8,5-2.5c0-0.8-0.5-1.3-1.4-1.7c-0.9-0.3-2.3-0.6-4.2-0.9c-2.2-0.3-4.1-0.7-5.5-1.2
		c-1.5-0.4-2.7-1.2-3.8-2.3c-1.1-1.1-1.6-2.7-1.6-4.8c0-1.7,0.5-3.2,1.5-4.6c1-1.3,2.4-2.4,4.4-3.1c1.9-0.7,4.2-1.1,6.8-1.1
		c1.9,0,3.8,0.2,5.7,0.6c1.9,0.4,3.5,1,4.7,1.7l-2.6,5.6c-2.4-1.3-5-2-7.8-2c-1.7,0-3,0.2-3.8,0.7c-0.8,0.5-1.3,1.1-1.3,1.8
		c0,0.8,0.5,1.4,1.4,1.8c0.9,0.3,2.4,0.7,4.4,1c2.2,0.4,4,0.8,5.5,1.2c1.4,0.4,2.6,1.2,3.7,2.3c1,1.1,1.6,2.7,1.6,4.7
		c0,1.7-0.5,3.2-1.5,4.5s-2.5,2.3-4.4,3.1c-1.9,0.7-4.2,1.1-6.9,1.1C299.8,67.5,297.6,67.3,295.4,66.7z"/>
</g>
</svg>
