<?xml version="1.0" encoding="utf-8"?>
<!-- Generator: Adobe Illustrator 19.0.0, SVG Export Plug-In . SVG Version: 6.00 Build 0)  -->
<svg version="1.1" id="Ebene_1" xmlns="http://www.w3.org/2000/svg" xmlns:xlink="http://www.w3.org/1999/xlink" x="0px" y="0px"
	 viewBox="-140 382.9 315 77" style="enable-background:new -140 382.9 315 77;" xml:space="preserve">
<style type="text/css">
	.st0{fill:#FFFFFF;}
	.st1{fill:#ED6E32;}
</style>
<polygon id="XMLID_468_" class="st0" points="-101.7,436.3 -88.1,449.9 -139.9,449.9 -139.9,398.1 -126.4,411.6 -126.4,436.3 "/>
<path id="XMLID_462_" class="st1" d="M-88.8,441.8c1.3,1.3,5,5,5,5l3.8-3.9c0,0-3.2-4.3-4.6-6.3c1.9-3,3.3-6.4,4.1-9.8
	c2.1-0.3,7.7-1.2,7.7-1.2v-10.9c0,0-6.3-1-7.7-1.2c-0.8-3.5-2.1-6.8-4.1-9.9c1-1.4,4.5-6.1,4.5-6.1l-7.8-7.6c0,0-4.6,3.4-6.1,4.5
	c-3.1-2-6.4-3.3-9.9-4.1c-0.2-1.5-1.1-7.3-1.1-7.3h-10.9c0,0-0.9,6-1.1,7.3c-3.5,0.8-6.8,2.1-9.9,4.1c-2.5-1.8-6.3-4.6-6.3-4.6
	l-3.9,3.9c0,0,3.4,3.4,4.9,4.9l8.9,8.9c7-7,18.4-7,25.4,0s7,18.4,0,25.4L-88.8,441.8z"/>
<g id="XMLID_51_">
	<path id="XMLID_149_" class="st0" d="M-32.8,434.8c1.1,1.5,1.7,3.3,1.7,5.5c0,3.1-1.2,5.5-3.6,7.2c-2.4,1.7-5.9,2.5-10.5,2.5h-18.4
		v-35.4h17.3c4.3,0,7.6,0.8,9.9,2.5c2.3,1.7,3.5,3.9,3.5,6.7c0,1.7-0.4,3.3-1.2,4.6c-0.8,1.3-2,2.4-3.5,3.2
		C-35.5,432.3-34,433.3-32.8,434.8z M-55.4,420.8v8.3h8.1c2,0,3.6-0.4,4.6-1.1c1-0.7,1.6-1.8,1.6-3.1c0-1.4-0.5-2.4-1.6-3.1
		c-1-0.7-2.6-1-4.6-1C-47.3,420.8-55.4,420.8-55.4,420.8z M-41,442.8c1.1-0.7,1.6-1.8,1.6-3.3c0-2.9-2.2-4.4-6.5-4.4h-9.6v8.8h9.6
		C-43.7,443.9-42.1,443.5-41,442.8z"/>
	<path id="XMLID_153_" class="st0" d="M-25.4,412.5h7.9V450h-7.9V412.5z"/>
	<path id="XMLID_162_" class="st0" d="M-5,448.6c-2.3-1.2-4.1-2.9-5.3-5c-1.3-2.1-1.9-4.5-1.9-7.2c0-2.7,0.6-5.1,1.9-7.2
		s3.1-3.8,5.3-5c2.3-1.2,4.8-1.8,7.7-1.8s5.4,0.6,7.7,1.8c2.3,1.2,4,2.9,5.3,5s1.9,4.5,1.9,7.2c0,2.7-0.6,5.1-1.9,7.2
		c-1.3,2.1-3.1,3.8-5.3,5c-2.3,1.2-4.8,1.8-7.7,1.8C-0.1,450.4-2.7,449.8-5,448.6z M7.7,441.9c1.3-1.4,1.9-3.2,1.9-5.5
		c0-2.3-0.6-4.1-1.9-5.5c-1.3-1.4-3-2-5-2s-3.7,0.7-5,2c-1.3,1.4-2,3.2-2,5.5c0,2.3,0.7,4.1,2,5.5c1.3,1.4,3,2,5,2
		C4.8,444,6.4,443.3,7.7,441.9z"/>
	<path id="XMLID_167_" class="st0" d="M28.3,448.6c-2.3-1.2-4.1-2.9-5.4-5c-1.3-2.1-1.9-4.5-1.9-7.2c0-2.7,0.6-5.1,1.9-7.2
		c1.3-2.1,3.1-3.8,5.4-5c2.3-1.2,4.9-1.8,7.8-1.8c2.9,0,5.4,0.6,7.5,1.8c2.1,1.2,3.7,2.9,4.7,5.1l-6.1,3.3c-1.4-2.5-3.5-3.7-6.1-3.7
		c-2.1,0-3.8,0.7-5.1,2c-1.3,1.3-2,3.2-2,5.5c0,2.3,0.7,4.2,2,5.5c1.3,1.3,3.1,2,5.1,2c2.7,0,4.7-1.2,6.1-3.7l6.1,3.3
		c-1,2.2-2.5,3.8-4.7,5.1c-2.1,1.2-4.6,1.8-7.5,1.8C33.2,450.4,30.6,449.8,28.3,448.6z"/>
	<path id="XMLID_170_" class="st0" d="M64.3,439.4l-3.8,3.7v6.9h-7.9v-37.5h7.9v21.2L72,422.8h9.4l-11.3,11.5L82.4,450h-9.6
		L64.3,439.4z"/>
	<path id="XMLID_175_" class="st1" d="M90.1,448.6c-2.3-1.2-4.1-2.9-5.3-5c-1.3-2.1-1.9-4.5-1.9-7.2c0-2.7,0.6-5.1,1.9-7.2
		c1.3-2.1,3.1-3.8,5.3-5c2.3-1.2,4.8-1.8,7.7-1.8s5.4,0.6,7.7,1.8c2.3,1.2,4,2.9,5.3,5s1.9,4.5,1.9,7.2c0,2.7-0.6,5.1-1.9,7.2
		c-1.3,2.1-3.1,3.8-5.3,5c-2.3,1.2-4.8,1.8-7.7,1.8C94.9,450.4,92.4,449.8,90.1,448.6z M102.8,441.9c1.3-1.4,1.9-3.2,1.9-5.5
		c0-2.3-0.6-4.1-1.9-5.5c-1.3-1.4-3-2-5-2s-3.7,0.7-5,2c-1.3,1.4-2,3.2-2,5.5c0,2.3,0.7,4.1,2,5.5c1.3,1.4,3,2,5,2
		C99.8,444,101.5,443.3,102.8,441.9z"/>
	<path id="XMLID_203_" class="st1" d="M141,424.2c2.1,1.2,3.7,2.8,4.9,4.9c1.2,2.1,1.8,4.6,1.8,7.4c0,2.8-0.6,5.3-1.8,7.4
		c-1.2,2.1-2.8,3.7-4.9,4.9c-2.1,1.2-4.4,1.7-6.9,1.7c-3.5,0-6.2-1.1-8.2-3.3v12.7H118v-37h7.5v3c2-2.4,4.8-3.5,8.5-3.5
		C136.6,422.4,138.9,423,141,424.2z M137.7,441.9c1.3-1.4,1.9-3.2,1.9-5.5c0-2.3-0.6-4.1-1.9-5.5c-1.3-1.4-3-2-5-2s-3.7,0.7-5,2
		c-1.3,1.4-1.9,3.2-1.9,5.5c0,2.3,0.6,4.1,1.9,5.5c1.3,1.4,3,2,5,2S136.4,443.3,137.7,441.9z"/>
	<path id="XMLID_237_" class="st1" d="M155.4,449.6c-2.2-0.6-3.9-1.3-5.2-2.1l2.6-5.7c1.2,0.8,2.7,1.4,4.4,1.9
		c1.7,0.5,3.4,0.7,5.1,0.7c3.3,0,5-0.8,5-2.5c0-0.8-0.5-1.3-1.4-1.7c-0.9-0.3-2.3-0.6-4.2-0.9c-2.2-0.3-4.1-0.7-5.5-1.2
		c-1.5-0.4-2.7-1.2-3.8-2.3c-1.1-1.1-1.6-2.7-1.6-4.8c0-1.7,0.5-3.2,1.5-4.6c1-1.3,2.4-2.4,4.4-3.1c1.9-0.7,4.2-1.1,6.8-1.1
		c1.9,0,3.8,0.2,5.7,0.6c1.9,0.4,3.5,1,4.7,1.7l-2.6,5.6c-2.4-1.3-5-2-7.8-2c-1.7,0-3,0.2-3.8,0.7s-1.3,1.1-1.3,1.8
		c0,0.8,0.5,1.4,1.4,1.8c0.9,0.3,2.4,0.7,4.4,1c2.2,0.4,4,0.8,5.5,1.2c1.4,0.4,2.6,1.2,3.7,2.3c1,1.1,1.6,2.7,1.6,4.7
		c0,1.7-0.5,3.2-1.5,4.5c-1,1.3-2.5,2.3-4.4,3.1c-1.9,0.7-4.2,1.1-6.9,1.1C159.8,450.4,157.6,450.2,155.4,449.6z"/>
</g>
</svg>
