<?xml version="1.0" encoding="utf-8"?>
<!-- Generator: Adobe Illustrator 19.0.0, SVG Export Plug-In . SVG Version: 6.00 Build 0)  -->
<svg version="1.1" id="Ebene_1" xmlns="http://www.w3.org/2000/svg" xmlns:xlink="http://www.w3.org/1999/xlink" x="0px" y="0px"
	 viewBox="0 0 450 180" style="enable-background:new 0 0 450 180;" xml:space="preserve">
<style type="text/css">
	.st0{fill:#2F2F30;}
	.st1{fill:#FFFFFF;}
	.st2{fill:#ED6E32;}
</style>
<rect id="XMLID_158_" x="0" class="st0" width="450" height="180"/>
<polygon id="XMLID_157_" class="st1" points="93.3,102.5 107.8,117 52.1,117 52.1,61.3 66.7,75.8 66.7,102.5 "/>
<path id="XMLID_148_" class="st2" d="M107.1,108.4c1.4,1.4,5.3,5.4,5.3,5.4l4.2-4.2c0,0-3.4-4.7-5-6.8c2.1-3.3,3.5-6.8,4.4-10.5
	c2.2-0.3,8.3-1.3,8.3-1.3l0-11.8c0,0-6.8-1-8.3-1.3c-0.8-3.7-2.3-7.3-4.4-10.6c1.1-1.5,4.8-6.6,4.8-6.6l-8.3-8.3c0,0-5,3.7-6.6,4.8
	c-3.3-2.1-6.9-3.6-10.6-4.4c-0.2-1.6-1.2-7.9-1.2-7.9l-11.8,0c0,0-1,6.5-1.2,7.9c-3.7,0.8-7.3,2.3-10.6,4.4
	c-2.6-1.9-6.7-4.9-6.7-4.9l-4.2,4.2c0,0,3.7,3.7,5.3,5.3l9.6,9.6c7.6-7.6,19.8-7.6,27.4,0s7.6,19.8,0,27.4L107.1,108.4z"/>
<g id="XMLID_1381_">
	<path id="XMLID_1382_" class="st1" d="M167.4,100.9c1.2,1.6,1.9,3.6,1.9,6c0,3.3-1.3,5.9-3.9,7.7s-6.4,2.7-11.4,2.7h-19.7V79.1
		h18.6c4.6,0,8.2,0.9,10.7,2.7c2.5,1.8,3.7,4.2,3.7,7.2c0,1.9-0.4,3.5-1.3,5c-0.9,1.5-2.1,2.6-3.7,3.4
		C164.4,98.1,166.2,99.2,167.4,100.9z M143,85.7v9h8.8c2.2,0,3.8-0.4,5-1.1c1.1-0.8,1.7-1.9,1.7-3.4c0-1.5-0.6-2.6-1.7-3.3
		s-2.8-1.1-5-1.1H143z M158.6,109.4c1.2-0.8,1.8-1.9,1.8-3.5c0-3.2-2.3-4.7-7-4.7H143v9.4h10.3C155.7,110.6,157.4,110.2,158.6,109.4
		z"/>
	<path id="XMLID_1386_" class="st1" d="M175.3,76.8h8.5v40.4h-8.5V76.8z"/>
	<path id="XMLID_1388_" class="st1" d="M197.4,115.7c-2.4-1.3-4.4-3.1-5.7-5.4c-1.4-2.3-2.1-4.9-2.1-7.8c0-2.9,0.7-5.5,2.1-7.8
		c1.4-2.3,3.3-4.1,5.7-5.4c2.5-1.3,5.2-1.9,8.3-1.9c3.1,0,5.8,0.6,8.3,1.9c2.4,1.3,4.3,3.1,5.7,5.4c1.4,2.3,2.1,4.9,2.1,7.8
		c0,2.9-0.7,5.5-2.1,7.8c-1.4,2.3-3.3,4.1-5.7,5.4c-2.4,1.3-5.2,1.9-8.3,1.9C202.6,117.7,199.8,117,197.4,115.7z M211,108.5
		c1.4-1.5,2.1-3.4,2.1-5.9c0-2.5-0.7-4.4-2.1-5.9c-1.4-1.5-3.2-2.2-5.4-2.2c-2.2,0-4,0.7-5.4,2.2c-1.4,1.5-2.1,3.4-2.1,5.9
		c0,2.5,0.7,4.4,2.1,5.9c1.4,1.5,3.2,2.2,5.4,2.2C207.8,110.7,209.6,109.9,211,108.5z"/>
	<path id="XMLID_1391_" class="st1" d="M233.1,115.7c-2.5-1.3-4.4-3.1-5.8-5.4c-1.4-2.3-2.1-4.9-2.1-7.8c0-2.9,0.7-5.5,2.1-7.8
		c1.4-2.3,3.3-4.1,5.8-5.4c2.5-1.3,5.3-1.9,8.4-1.9c3.1,0,5.8,0.6,8.1,1.9c2.3,1.3,4,3.1,5,5.5l-6.6,3.5c-1.5-2.7-3.7-4-6.6-4
		c-2.2,0-4,0.7-5.5,2.2c-1.5,1.5-2.2,3.4-2.2,5.9c0,2.5,0.7,4.5,2.2,5.9c1.5,1.5,3.3,2.2,5.5,2.2c2.9,0,5.1-1.3,6.6-4l6.6,3.6
		c-1.1,2.3-2.7,4.1-5,5.4c-2.3,1.3-5,2-8.1,2C238.4,117.7,235.6,117,233.1,115.7z"/>
	<path id="XMLID_1393_" class="st1" d="M271.9,105.7l-4.1,4v7.5h-8.5V76.8h8.5v22.9l12.4-11.8h10.1l-12.2,12.4l13.3,16.9h-10.3
		L271.9,105.7z"/>
	<path id="XMLID_1395_" class="st2" d="M299.7,115.7c-2.5-1.3-4.4-3.1-5.7-5.4c-1.4-2.3-2.1-4.9-2.1-7.8c0-2.9,0.7-5.5,2.1-7.8
		c1.4-2.3,3.3-4.1,5.7-5.4c2.5-1.3,5.2-1.9,8.3-1.9s5.8,0.6,8.3,1.9c2.4,1.3,4.3,3.1,5.7,5.4c1.4,2.3,2.1,4.9,2.1,7.8
		c0,2.9-0.7,5.5-2.1,7.8c-1.4,2.3-3.3,4.1-5.7,5.4c-2.4,1.3-5.2,1.9-8.3,1.9S302.1,117,299.7,115.7z M313.4,108.5
		c1.4-1.5,2.1-3.4,2.1-5.9c0-2.5-0.7-4.4-2.1-5.9c-1.4-1.5-3.2-2.2-5.4-2.2s-4,0.7-5.4,2.2c-1.4,1.5-2.1,3.4-2.1,5.9
		c0,2.5,0.7,4.4,2.1,5.9c1.4,1.5,3.2,2.2,5.4,2.2S312,109.9,313.4,108.5z"/>
	<path id="XMLID_1398_" class="st2" d="M354.5,89.4c2.2,1.3,4,3,5.3,5.3c1.3,2.3,1.9,4.9,1.9,7.9c0,3-0.6,5.7-1.9,7.9
		c-1.3,2.3-3,4-5.3,5.3c-2.2,1.3-4.7,1.9-7.4,1.9c-3.7,0-6.7-1.2-8.8-3.5v13.7h-8.5V87.9h8.1v3.4c2.1-2.5,5.2-3.8,9.2-3.8
		C349.8,87.5,352.2,88.1,354.5,89.4z M350.9,108.5c1.4-1.5,2.1-3.4,2.1-5.9c0-2.5-0.7-4.4-2.1-5.9c-1.4-1.5-3.2-2.2-5.4-2.2
		c-2.2,0-4,0.7-5.4,2.2c-1.4,1.5-2.1,3.4-2.1,5.9c0,2.5,0.7,4.4,2.1,5.9c1.4,1.5,3.2,2.2,5.4,2.2
		C347.7,110.7,349.5,109.9,350.9,108.5z"/>
	<path id="XMLID_1401_" class="st2" d="M370,116.8c-2.3-0.6-4.2-1.4-5.6-2.3l2.8-6.1c1.3,0.8,2.9,1.5,4.7,2c1.9,0.5,3.7,0.8,5.4,0.8
		c3.6,0,5.4-0.9,5.4-2.7c0-0.8-0.5-1.4-1.5-1.8c-1-0.4-2.5-0.7-4.5-0.9c-2.4-0.4-4.4-0.8-5.9-1.3c-1.6-0.5-2.9-1.3-4.1-2.5
		c-1.1-1.2-1.7-2.9-1.7-5.1c0-1.9,0.5-3.5,1.6-4.9c1.1-1.4,2.6-2.6,4.7-3.3c2.1-0.8,4.5-1.2,7.3-1.2c2.1,0,4.1,0.2,6.2,0.7
		c2.1,0.5,3.7,1.1,5.1,1.9l-2.8,6c-2.6-1.5-5.4-2.2-8.4-2.2c-1.8,0-3.2,0.3-4.1,0.8s-1.4,1.2-1.4,2c0,0.9,0.5,1.5,1.5,1.9
		c1,0.4,2.5,0.7,4.7,1c2.4,0.4,4.4,0.8,5.9,1.3c1.5,0.5,2.8,1.3,4,2.5c1.1,1.2,1.7,2.9,1.7,5c0,1.8-0.5,3.4-1.6,4.8
		c-1.1,1.4-2.7,2.5-4.8,3.3c-2.1,0.8-4.6,1.2-7.4,1.2C374.7,117.7,372.3,117.4,370,116.8z"/>
</g>
</svg>
